<svg width="770" height="275" viewBox="0 0 770 275" fill="none" xmlns="http://www.w3.org/2000/svg">
<g opacity="0.1">
<path d="M188.693 168.965V5.0566H143.092L0 178.286V208.582H140.733V275H188.693V208.582H225.252V168.965H188.693ZM62.1113 168.965L140.733 70.3091V168.965H62.1113Z" fill="#13080D"/>
<path d="M387.833 0.00729431C315.108 -0.769534 267.149 60.5989 267.149 137.504C267.149 213.243 315.108 275 387.833 275C460.952 275 508.518 213.243 508.518 137.504C508.518 61.3757 460.952 0.00729431 387.833 0.00729431ZM387.44 43.1206C429.11 43.1206 458.986 80.7961 458.986 137.504C458.986 193.823 429.11 231.498 387.833 231.498C346.557 231.498 316.68 193.823 316.68 137.504C316.68 80.4077 346.557 42.7322 387.44 43.1206Z" fill="#13080D"/>
<path d="M733.441 168.965V5.0566H687.84L544.748 178.286V208.582H685.482V275H733.441V208.582H770V168.965H733.441ZM606.86 168.965L685.482 70.3091V168.965H606.86Z" fill="#13080D"/>
</g>
</svg>
