<?xml version="1.0" encoding="utf-8"?><svg width="94" height="50" viewBox="0 0 94 50" fill="none" xmlns="http://www.w3.org/2000/svg">
<path d="M27.6846 2.94231C27.6808 3.8068 28.339 4.33384 29.1189 4.33763C29.9673 4.34142 30.6825 3.74234 30.694 2.52524C30.694 1.55079 29.701 0.00760716 27.2966 2.34714e-05C24.5536 -0.00756021 22.9633 1.82379 22.9557 3.74993L22.9519 4.45517L21.4796 4.45138C21.3578 4.45138 21.3046 4.53858 21.3046 4.69783L21.3008 5.9301C21.3008 6.08935 21.354 6.16139 21.4758 6.16139L22.9481 6.16518L22.9329 10.7606C22.9329 10.9919 22.9139 11.2194 22.8796 11.3445C22.8073 11.6479 22.6513 11.682 22.3698 11.6971C22.2798 11.6971 22.0923 11.7012 21.9102 11.705C21.7382 11.7087 21.5705 11.7123 21.4948 11.7123C21.3731 11.7123 21.3008 11.7464 21.3008 11.9057L21.297 13.3996C21.297 13.5588 21.3502 13.6309 21.472 13.6309L27.6276 13.6536C27.7493 13.6574 27.8026 13.5854 27.8026 13.4261L27.8064 11.9322C27.8102 11.773 27.7379 11.7351 27.6162 11.7351C27.5766 11.7341 27.5072 11.7323 27.4225 11.73C27.165 11.723 26.7662 11.7123 26.6346 11.7123C26.3569 11.6934 26.1971 11.6554 26.1286 11.3559C26.0944 11.2308 26.0792 11.0033 26.0792 10.772L26.0944 6.17656L27.8787 6.18414C28.0004 6.18414 28.0537 6.11589 28.0537 5.95664L28.0575 4.72437C28.0575 4.56891 28.0042 4.47791 27.8825 4.47791L26.0982 4.47033L26.102 3.31389C26.1058 1.7745 26.8439 1.33846 27.8406 1.34225C28.3383 1.34596 28.5206 1.48699 28.6705 1.60305L28.6814 1.61146V1.64558C28.4684 1.73279 27.6884 2.10057 27.6846 2.94231Z" fill="#13080D"/>
<path fill-rule="evenodd" clip-rule="evenodd" d="M37.7204 13.7563C38.7651 13.7427 39.7735 13.7294 39.8322 13.7294C39.9539 13.7294 40.0072 13.6574 40.0072 13.5019L40.011 12.0118C40.011 11.8526 39.9387 11.8185 39.817 11.8185C39.7389 11.8185 39.5364 11.8094 39.3292 11.8002C39.1125 11.7905 38.8907 11.7806 38.8012 11.7806C38.5235 11.7616 38.3637 11.7426 38.2952 11.4431C38.2648 11.318 38.2648 11.0905 38.2648 10.8593L38.3028 0.295766C38.3028 0.136518 38.2343 0.064479 38.0936 0.064479C38.0206 0.064479 36.862 0.0746569 35.7453 0.0844669C34.7069 0.0935918 33.7048 0.102395 33.6462 0.102395C33.5244 0.102395 33.4711 0.189602 33.4711 0.34885L33.4673 1.61525C33.4673 1.7745 33.5396 1.80862 33.6614 1.80862C33.7371 1.80862 33.9376 1.81398 34.1438 1.8195C34.362 1.82534 34.5872 1.83137 34.6772 1.83137C34.9549 1.85033 35.1147 1.86928 35.1831 2.16882C35.2212 2.29015 35.2364 2.53661 35.2364 2.7679L35.225 5.85806H35.1603C34.7266 4.70541 33.8782 4.21629 32.3032 4.2125C30.2374 4.20871 28.415 5.96802 28.4036 9.0961C28.3922 12.137 29.9482 13.9797 32.17 13.9873C33.9201 13.9911 34.5858 13.282 35.0994 12.2773H35.1527L35.1489 13.5361C35.1489 13.6953 35.2174 13.7863 35.3582 13.7863C35.4311 13.7863 36.5969 13.7711 37.7204 13.7563ZM31.7211 9.10368C31.7325 6.76047 32.4287 5.94906 33.4559 5.95285C34.9929 5.96044 35.0994 7.43158 35.0918 9.11506C35.0842 10.9464 34.7228 12.3228 33.4331 12.319C32.2765 12.3152 31.7135 11.3104 31.7211 9.10368Z" fill="#13080D"/>
<path d="M43.4845 12.6109C43.4883 11.7654 42.8682 11.2118 42.1073 11.2118C41.3426 11.208 40.7225 11.7578 40.7225 12.6033C40.7187 13.4489 41.335 14.0024 42.0997 14.0024C42.8606 14.0024 43.4807 13.4565 43.4845 12.6109Z" fill="#13080D"/>
<path d="M16.0126 11.6706C16.0126 11.6706 17.1919 11.8526 17.2262 13.5171C17.24 14.1777 16.3579 14.1764 16.1944 14.1762C16.1781 14.1762 16.1685 14.1769 16.1685 14.1769C15.594 14.1536 15.3575 14.2199 15.0913 14.2945C14.9662 14.3296 14.8345 14.3665 14.6582 14.3968C13.0413 14.6774 13.5054 16.8006 15.3392 17.5476C17.7816 18.5448 18.1659 19.633 18.1659 19.633L17.9148 29.0931C15.9365 30.7234 14.0761 30.185 14.0761 30.185L14.3881 26.1621C3.42744 24.9071 5.07097 33.9349 5.07097 33.9349C5.07097 33.9349 5.60739 31.8458 8.86781 32.1301C12.1282 32.4145 13.1859 35.1293 13.0109 37.1389C12.8358 39.1484 11.5537 41.6016 7.83299 41.3362C2.90243 40.9798 0.96977 35.1255 1.46054 29.5329C2.191 21.1951 10.7092 19.8377 10.7092 19.8377C9.09607 17.9495 8.23627 15.7314 8.13355 15.011C8.11072 14.8366 8.10311 14.738 8.10311 14.738C8.10311 14.738 6.02588 15.212 5.10521 14.3816C4.18453 13.5512 4.83889 13.5361 4.83889 13.5361C5.80903 13.7674 7.89767 12.9484 6.97699 11.9739C6.09817 11.045 1.49098 9.28947 0.539867 8.93306C-0.841147 8.4174 0.863245 8.39465 0.863245 8.39465C2.21382 8.62215 6.90851 9.96059 8.67378 11.0109L8.84878 10.9616C8 10 5.7 9.05606 4.30984 8.5096C3.70087 8.27023 3.25979 8.09684 3.17635 8.00791C2.62851 7.42779 4.02094 7.76904 4.02094 7.76904C7.68843 8.61457 10.5075 10.408 10.5075 10.408C10.5075 10.408 11.6565 10.3549 13.281 11.1436C14.0076 11.4962 16.0126 11.6706 16.0126 11.6706Z" fill="#13080D"/>
<path d="M21.5785 17.6689C22.7617 17.667 23.9439 17.6661 25.1261 17.6651C26.3084 17.6642 27.4906 17.6632 28.6738 17.6613C34.3538 17.6576 40.0301 17.6538 45.7101 17.6462C49.1436 17.6443 52.5771 17.6414 56.0107 17.6386C59.4442 17.6358 62.8777 17.6329 66.3112 17.631C69.2635 17.6291 72.2148 17.6263 75.1661 17.6234C78.1174 17.6206 81.0687 17.6177 84.0209 17.6158C85.0138 17.6145 86.0077 17.6177 87.0017 17.6209H87.0095C88.9038 17.627 90.7992 17.6331 92.6913 17.6083H92.813C93.7147 17.6083 93.8402 16.2092 92.9309 16.2092C90.5684 16.2092 88.2096 16.2129 85.847 16.2167L85.8356 16.2167C80.1556 16.2205 74.4794 16.2243 68.7993 16.2319L48.1982 16.2471C45.246 16.249 42.2947 16.2518 39.3434 16.2547C36.3921 16.2575 33.4408 16.2603 30.4885 16.2622C29.4956 16.2636 28.5018 16.2603 27.5077 16.2571H27.4999C25.6056 16.2511 23.7102 16.245 21.8182 16.2698H21.6964C20.7948 16.2736 20.6692 17.6727 21.5785 17.6689Z" fill="#13080D"/>
<path d="M21.9627 23.5876L21.9551 28.3802C21.9551 29.6428 22.2861 30.5718 22.9519 31.1709C23.6252 31.7623 24.5231 32.0619 25.6454 32.0619C26.7677 32.0619 27.6694 31.7661 28.3466 31.1746C29.0238 30.5832 29.3662 29.6542 29.3662 28.3916L29.37 26.2342C29.37 26.0674 29.3167 25.9271 29.214 25.8133C29.1075 25.6958 28.9667 25.6389 28.7917 25.6389L25.9498 25.6351C25.771 25.6351 25.634 25.7071 25.5351 25.8474C25.4362 25.9877 25.3867 26.1432 25.3867 26.3176C25.3867 26.5148 25.4362 26.6778 25.5351 26.8143C25.634 26.9508 25.7748 27.019 25.9498 27.019L27.6199 27.0228V28.3802C27.6199 29.0968 27.4487 29.6315 27.1063 29.9841C26.7639 30.3367 26.2807 30.5111 25.653 30.5111C24.3519 30.5073 23.7013 29.8021 23.7051 28.384L23.7127 23.5914C23.7127 22.1734 24.3633 21.4681 25.6644 21.4681C26.8552 21.4681 27.5096 22.0558 27.6275 23.2312C27.6389 23.6142 27.9281 23.8075 28.5025 23.8075C28.8107 23.8075 29.0352 23.7469 29.1721 23.6255C29.3129 23.5042 29.3814 23.2843 29.3814 22.9658C29.3814 22.0444 29.0352 21.3051 28.3352 20.7515C27.6351 20.1979 26.7297 19.9174 25.6188 19.9174C24.5307 19.9174 23.6481 20.2131 22.9747 20.8046C22.3013 21.3961 21.9627 22.325 21.9627 23.5876Z" fill="#13080D"/>
<path fill-rule="evenodd" clip-rule="evenodd" d="M30.1499 31.2429C30.1499 31.1784 30.1537 31.1291 30.1651 31.095L33.4598 20.4254C33.6005 20.0311 33.9924 19.8339 34.6353 19.8339C35.2897 19.8339 35.6854 20.0197 35.8261 20.3875L39.0827 31.0609C39.1056 31.1291 39.117 31.1822 39.117 31.2164C39.117 31.4249 38.9876 31.6031 38.7327 31.751C38.474 31.8988 38.2039 31.9747 37.9148 31.9747C37.5686 31.9747 37.3517 31.8533 37.268 31.6145L36.587 29.2561L32.5239 29.2523L31.8429 31.6031C31.7668 31.8458 31.5613 31.9671 31.2342 31.9671C30.9716 31.9671 30.7244 31.8951 30.4923 31.751C30.2678 31.6069 30.1499 31.4401 30.1499 31.2429ZM32.9271 27.8684L36.2066 27.8722L34.5592 22.2189L32.9271 27.8684Z" fill="#13080D"/>
<path d="M39.4328 30.8561C39.311 31.0533 39.2502 31.2581 39.2502 31.4666C39.2502 31.8078 39.4328 31.9785 39.798 31.9709L46.49 31.9785C46.665 31.9785 46.8058 31.8988 46.9123 31.7396C47.0151 31.5803 47.0683 31.4021 47.0683 31.205C47.0683 31.0078 47.0151 30.8296 46.9123 30.6704C46.8058 30.5111 46.665 30.4315 46.49 30.4315L41.4834 30.4239L46.6194 21.0776C46.7487 20.8501 46.8172 20.634 46.8172 20.4368C46.8172 20.1107 46.627 19.9439 46.2542 19.9439L40.091 19.9363C39.9045 19.9363 39.76 20.0159 39.6611 20.1676C39.5621 20.3193 39.5127 20.5013 39.5127 20.7098C39.5127 20.9297 39.5659 21.1155 39.6687 21.2634C39.7752 21.4112 39.916 21.4871 40.091 21.4871L44.5688 21.4947L39.4328 30.8561Z" fill="#13080D"/>
<path d="M48.1906 31.4135L48.2058 20.5278C48.2058 20.3534 48.2819 20.2131 48.4379 20.1069C48.5939 20.0046 48.7727 19.9515 48.982 19.9515L54.8636 19.9591C55.0501 19.9591 55.1946 20.0349 55.2935 20.1904C55.3925 20.3458 55.4419 20.5202 55.4419 20.7174C55.4419 20.9373 55.3886 21.1231 55.2859 21.2785C55.1794 21.434 55.0386 21.5098 54.8636 21.5098L49.9559 21.5022L49.9521 25.2749L52.4973 25.2787C52.6723 25.2787 52.813 25.3469 52.9196 25.4834C53.0223 25.6199 53.0755 25.7868 53.0755 25.9877C53.0755 26.1621 53.0261 26.3214 52.9272 26.4579C52.8283 26.5944 52.6837 26.6626 52.4973 26.6626L49.9521 26.6588L49.9483 30.4467L54.856 30.4542C55.031 30.4542 55.1718 30.5301 55.2783 30.6855C55.381 30.841 55.4343 31.0268 55.4343 31.2467C55.4343 31.4439 55.3848 31.6183 55.2859 31.7737C55.187 31.9292 55.0424 32.005 54.856 32.005L48.9743 31.9974C48.7651 31.9974 48.5825 31.9443 48.4303 31.842C48.2667 31.7282 48.1906 31.5879 48.1906 31.4135Z" fill="#13080D"/>
<path d="M56.5984 20.524L56.5832 31.4249C56.5832 31.5993 56.6592 31.7396 56.819 31.8458C56.9712 31.9481 57.1538 32.0012 57.3631 32.0012L62.6322 32.0088C62.7958 32.0088 62.9252 31.933 63.0203 31.7775C63.1154 31.6258 63.161 31.4438 63.161 31.2353C63.161 31.0268 63.1154 30.8486 63.0203 30.6931C62.9252 30.5377 62.7958 30.4618 62.6322 30.4618L58.337 30.4542L58.3484 20.524C58.3484 20.3382 58.2647 20.1979 58.0935 20.1031C57.9223 20.0084 57.7169 19.9629 57.4734 19.9629C57.2299 19.9629 57.0245 20.0084 56.8533 20.1031C56.6821 20.1979 56.5984 20.3382 56.5984 20.524Z" fill="#13080D"/>
<path d="M64.2149 31.4325L64.2302 20.5316C64.2302 20.3458 64.3177 20.2055 64.4851 20.1107C64.6563 20.0159 64.8617 19.9704 65.1052 19.9704C65.3487 19.9704 65.5541 20.0197 65.7253 20.1107C65.8965 20.2055 65.9802 20.3458 65.9802 20.5316L65.9688 30.4618L70.264 30.4694C70.4276 30.4694 70.557 30.5452 70.6521 30.7007C70.7472 30.8562 70.7928 31.0344 70.7928 31.2429C70.7928 31.4514 70.7472 31.6334 70.6521 31.7851C70.557 31.9406 70.4276 32.0164 70.264 32.0164L64.9949 32.0088C64.7856 32.0088 64.603 31.9557 64.4508 31.8533C64.2948 31.7472 64.2149 31.6107 64.2149 31.4325Z" fill="#13080D"/>
<path d="M71.8657 20.5581L71.8504 31.4438C71.8504 31.6183 71.9265 31.7586 72.0901 31.8723C72.2423 31.9747 72.4249 32.0278 72.6342 32.0278L78.5158 32.0353C78.7023 32.0353 78.8468 31.9595 78.9457 31.8041C79.0447 31.6486 79.0941 31.4742 79.0941 31.277C79.0941 31.0571 79.0408 30.8713 78.9381 30.7159C78.8316 30.5604 78.6908 30.4846 78.5158 30.4846L73.6081 30.477L73.6119 26.6892L76.1571 26.693C76.3435 26.693 76.4881 26.6247 76.587 26.4882C76.6859 26.3517 76.7354 26.1925 76.7354 26.0181C76.7354 25.8171 76.6821 25.6503 76.5794 25.5138C76.4728 25.3773 76.3321 25.309 76.1571 25.309L73.6119 25.3052L73.6157 21.5326L78.5234 21.5402C78.6984 21.5402 78.8392 21.4643 78.9457 21.3089C79.0485 21.1534 79.1017 20.9676 79.1017 20.7477C79.1017 20.5506 79.0523 20.3761 78.9533 20.2207C78.8544 20.0652 78.7099 19.9894 78.5234 19.9894L72.6418 19.9818C72.4325 19.9818 72.2537 20.0349 72.0977 20.1373C71.9417 20.2434 71.8657 20.3837 71.8657 20.5581Z" fill="#13080D"/>
<path d="M80.2431 31.4552L80.2583 20.5695C80.2583 20.1866 80.5513 19.9932 81.1334 19.9932C81.4415 19.9932 81.6888 20.0614 81.8752 20.2017C82.0616 20.3382 82.2557 20.5998 82.4535 20.9828L86.1134 28.1186L86.1248 20.5619C86.1248 20.3761 86.2123 20.2358 86.3797 20.1411C86.5509 20.0463 86.7563 20.0008 86.9998 20.0008C87.2433 20.0008 87.4487 20.0501 87.6199 20.1411C87.7912 20.2358 87.8748 20.3761 87.8748 20.5619L87.8596 31.4628C87.8596 31.6372 87.7721 31.7775 87.6047 31.8837C87.4335 31.9861 87.2281 32.0391 86.9846 32.0391C86.5204 32.0391 86.1742 31.823 85.946 31.3946L82.0084 23.8948L81.997 31.4514C81.997 31.6258 81.9095 31.7661 81.7421 31.8723C81.5709 31.9747 81.3654 32.0278 81.1219 32.0278C80.8899 32.0278 80.6882 31.9747 80.5094 31.8723C80.3306 31.7699 80.2431 31.6296 80.2431 31.4552Z" fill="#13080D"/>
<path d="M18.7061 35.6222C17.8007 35.6222 17.93 34.2231 18.8279 34.2231H18.9572C20.9686 34.2004 22.9818 34.2079 24.9943 34.2155C26.0004 34.2193 27.0063 34.2231 28.0118 34.2231H93.3798C94.2891 34.2231 94.156 35.6222 93.2581 35.6222H93.1287C91.1173 35.645 89.1042 35.6374 87.0917 35.6298C86.0856 35.626 85.0797 35.6222 84.0742 35.6222H18.7061Z" fill="#13080D"/>
<path d="M21.1448 49.3175V47.7212C21.1448 47.2283 21.3236 46.743 21.685 46.2728C22.0464 45.7989 22.4878 45.3742 23.0166 44.9875L24.6068 43.8348C25.1357 43.4519 25.5846 43.0272 25.9574 42.5684C26.3264 42.1059 26.5129 41.6471 26.5129 41.1845C26.5129 40.7219 26.3607 40.32 26.0563 39.975C25.752 39.6299 25.3069 39.4555 24.7248 39.4555C24.2302 39.4555 23.8269 39.592 23.515 39.865C23.2068 40.138 23.0508 40.5399 23.0508 41.0783C23.0508 41.2528 22.9671 41.4044 22.7959 41.5371C22.6247 41.6698 22.4003 41.7343 22.1263 41.7343C21.5975 41.7343 21.3312 41.412 21.3312 40.7598C21.3312 39.9029 21.666 39.2015 22.3318 38.6555C22.9976 38.1095 23.7965 37.8403 24.7248 37.8403C25.7063 37.8403 26.5433 38.1474 27.2319 38.7579C27.9205 39.3721 28.2667 40.1608 28.2667 41.1352C28.2667 41.795 28.0803 42.413 27.7113 42.9855C27.3422 43.5618 26.8933 44.051 26.3721 44.4491C25.8471 44.851 25.3221 45.2301 24.8009 45.5866C24.2758 45.943 23.8307 46.3032 23.4617 46.6634C23.0927 47.0274 22.9062 47.3762 22.9062 47.7174V48.3431H27.7721C27.9281 48.3431 28.0613 48.4189 28.1792 48.5668C28.2972 48.7146 28.3542 48.8928 28.3542 49.1014C28.3542 49.3099 28.2972 49.4957 28.183 49.655C28.0689 49.8142 27.9319 49.8938 27.7797 49.8938H21.9171C21.7421 49.8938 21.5709 49.8407 21.3997 49.7308C21.2285 49.6208 21.1448 49.4805 21.1448 49.3175Z" fill="#13080D"/>
<path d="M32.7445 43.9145C32.7445 44.1192 32.8168 44.2898 32.9538 44.4187C33.0907 44.5514 33.2695 44.6159 33.4902 44.6159C33.7109 44.6159 33.8859 44.5477 34.019 44.4187C34.1522 44.2898 34.2168 44.1192 34.2168 43.9145C34.2168 43.7097 34.1522 43.5429 34.019 43.4178C33.8859 43.2964 33.7109 43.232 33.4902 43.232C33.2695 43.232 33.0907 43.2926 32.9538 43.4178C32.813 43.5429 32.7445 43.7097 32.7445 43.9145Z" fill="#13080D"/>
<path fill-rule="evenodd" clip-rule="evenodd" d="M29.7314 41.5144V46.3145C29.7314 47.5772 30.07 48.5099 30.7396 49.1014C31.413 49.6967 32.3222 49.9924 33.4636 49.9924C34.6087 49.9924 35.518 49.6967 36.1952 49.1014C36.8724 48.5099 37.2109 47.5809 37.2109 46.3145V41.5144C37.2109 40.2518 36.8724 39.3228 36.1952 38.7275C35.518 38.1323 34.6049 37.8365 33.4636 37.8365C32.3222 37.8365 31.413 38.1323 30.7396 38.7275C30.0662 39.319 29.7314 40.2518 29.7314 41.5144ZM33.4712 48.4416C32.1472 48.4416 31.4852 47.7326 31.4852 46.3145V41.5144C31.4852 40.0963 32.1472 39.3873 33.4712 39.3873C34.1065 39.3873 34.5935 39.5617 34.9397 39.9143C35.2859 40.2669 35.4571 40.8015 35.4571 41.5144V46.3145C35.4571 47.0312 35.2859 47.562 34.9397 47.9146C34.5935 48.2672 34.1065 48.4416 33.4712 48.4416Z" fill="#13080D"/>
<path d="M38.1887 40.3276C38.1887 40.0432 38.3029 39.8157 38.5349 39.6527L40.2545 38.0033C40.3763 37.882 40.5247 37.8213 40.6997 37.8213C40.8975 37.8213 41.0763 37.8744 41.2361 37.9768C41.3959 38.083 41.4758 38.2233 41.4758 38.3977V49.3175C41.4758 49.4919 41.3883 49.6322 41.2094 49.7384C41.0344 49.8445 40.829 49.8938 40.5969 49.8938C40.3535 49.8938 40.148 49.8407 39.9768 49.7384C39.8056 49.6322 39.7219 49.4919 39.7219 49.3175V40.1456L39.1436 40.8698C39.0333 40.9798 38.9116 41.0328 38.7784 41.0328C38.611 41.0328 38.474 40.957 38.3561 40.8091C38.2458 40.665 38.1887 40.502 38.1887 40.3276Z" fill="#13080D"/>
<path fill-rule="evenodd" clip-rule="evenodd" d="M43.3856 46.4814C43.2525 46.5913 43.1878 46.7847 43.1878 47.0577C43.1878 47.8388 43.5036 48.5213 44.1313 49.1166C44.7666 49.7043 45.6569 50 46.8058 50C47.9662 50 48.8907 49.7043 49.5793 49.109C50.2679 48.5175 50.6141 47.5885 50.6141 46.3221V41.522C50.6141 40.2593 50.2717 39.3304 49.5945 38.7351C48.9173 38.1398 48.0156 37.8441 46.8895 37.8441C45.7634 37.8441 44.8656 38.1398 44.1922 38.7313C43.5188 39.3266 43.184 40.2518 43.184 41.5144V41.8101C43.184 44.0472 44.3063 45.1657 46.5585 45.1657C47.5972 45.1657 48.3657 44.8548 48.8602 44.2368V46.3183C48.8602 47.7402 48.1944 48.4492 46.8591 48.4492C46.3074 48.4492 45.8471 48.3127 45.4781 48.0435C45.109 47.7743 44.9226 47.4179 44.9226 46.9781C44.9226 46.5382 44.6183 46.3183 44.0134 46.3183C43.728 46.3183 43.5188 46.3714 43.3856 46.4814ZM46.9123 43.7742C45.596 43.7742 44.9416 43.0879 44.9416 41.7115V41.4347C44.9416 40.0281 45.5922 39.3228 46.8933 39.3228C48.2059 39.3228 48.864 40.0281 48.864 41.4347V41.8594C48.864 43.1372 48.2135 43.7742 46.9123 43.7742Z" fill="#13080D"/>
</svg>
