<svg width="1155" height="810" fill="none" xmlns="http://www.w3.org/2000/svg"><path d="M0 810L468.98 0h1.164L1.164 810H0zM685.841 810L1155 0h-1.16L684.71 809.943a.437.437 0 00-.029.057h1.16zM599.99 810L1069.15 0h-1.17L598.859 809.943c-.011.018-.02.038-.029.057h1.16zM514.308 810L983.467 0h-1.164L513.177 809.943a.602.602 0 00-.028.057h1.159zM428.615 810L897.608 0h-1.164l-468.96 809.943a.43.43 0 00-.028.057h1.159zM342.76 810L811.919 0h-1.164L341.629 809.943a.43.43 0 00-.028.057h1.159zM257.047 810L726.04 0h-1.164l-468.96 809.943a.43.43 0 00-.028.057h1.159zM170.519 810L639.678 0h-1.164L169.388 809.943c-.011.018-.02.038-.029.057h1.16zM86.466 810L555.497 0h-1.164L85.303 810h1.163z" fill="#E7E6E7"/></svg>