<?xml version="1.0" encoding="utf-8"?><svg width="60" height="50" viewBox="0 0 60 50" fill="none" xmlns="http://www.w3.org/2000/svg">
<path fill-rule="evenodd" clip-rule="evenodd" d="M28.0706 0.0313844C28.566 -0.0206188 29.1315 -0.00324504 29.594 0.0487582L29.6283 0.0834586L29.6462 0.0487582C33.7389 0.378246 37.5243 2.65024 39.8206 6.18826C39.7042 6.24727 39.5863 6.23398 39.4595 6.21949L39.3506 6.2087L39.2715 6.20559C38.5359 5.11302 37.6108 4.12442 36.5664 3.30927L36.3948 3.37869L35.1952 4.08969V4.1764C35.4861 4.48863 35.7264 4.78344 35.9487 5.11302C36.2232 5.44253 36.4799 5.82402 36.6858 6.20559C36.5768 6.24711 36.4336 6.24447 36.2859 6.24173L36.171 6.24033C35.992 5.97536 35.8054 5.7076 35.6115 5.44492C35.322 5.05422 35.0161 4.67478 34.6983 4.33257L34.5775 4.38297C33.8658 4.67802 33.166 4.96806 32.42 5.165L32.3871 5.19973L32.8154 6.20559C32.7736 6.22955 32.7214 6.24109 32.6662 6.24595L32.6259 6.24831L32.5587 6.24869L32.4543 6.24449L32.3349 6.24033L31.8724 5.33843L31.7873 5.32108C30.8279 5.56387 29.7835 5.66794 28.7898 5.72002C28.7538 5.80011 28.7553 5.88937 28.7568 5.98071L28.757 5.99113C28.7599 6.07443 28.7614 6.15927 28.7376 6.24033H28.275C28.2556 6.17941 28.2586 6.10264 28.2631 6.02446L28.2661 5.93728C28.2661 5.89022 28.2631 5.84461 28.2511 5.80375C28.2407 5.7648 28.2213 5.73017 28.19 5.70267C27.1276 5.66794 26.0832 5.54661 25.0895 5.32108C24.9941 5.48488 24.9155 5.65932 24.8374 5.8326L24.7538 6.01875L24.6448 6.24033L24.5881 6.24555C24.4315 6.26059 24.3166 6.27145 24.148 6.24033L24.5762 5.23438L24.5076 5.165C23.8988 4.997 23.3124 4.77253 22.7216 4.54627L22.2978 4.38457C21.7487 4.95685 21.2877 5.59859 20.8595 6.24033C20.6879 6.27496 20.4641 6.29231 20.3447 6.24033C20.7069 5.57149 21.1986 4.94656 21.6874 4.32523L21.6891 4.32318L21.8174 4.15914C21.6245 4.03362 21.4155 3.91523 21.205 3.79592L21.1967 3.79122L21.1743 3.77772C20.9296 3.63911 20.6819 3.49873 20.4477 3.34397C20.2149 3.49547 19.9986 3.6715 19.7867 3.86213C19.5987 4.03028 19.4152 4.20977 19.2272 4.3938L19.1123 4.506C18.5975 5.06092 18.135 5.63331 17.7247 6.22298C17.6187 6.26585 17.4994 6.2557 17.383 6.24581C17.3115 6.23971 17.2412 6.23371 17.1756 6.24033C19.5405 2.54617 23.3259 0.378246 27.4365 0.0487582C27.6588 0.0313845 27.8811 0.0140343 28.0706 0.0313844ZM31.3591 0.863909V0.829209C29.5597 0.360896 27.4186 0.39562 25.6027 0.829209C25.6145 0.910411 25.6959 0.952788 25.7725 0.992696L25.7758 0.994401L25.837 1.02714L25.8773 1.05462C27.4529 2.07795 29.8685 1.97385 31.3591 0.863909ZM36.0352 3.01446L36.0695 2.9451C34.8356 2.04322 33.4823 1.3842 32.044 1.00262L31.9619 1.05847L31.9603 1.05955C31.8563 1.12871 31.7454 1.20246 31.7187 1.2975C32.7975 1.93912 33.8598 2.7543 34.767 3.69083H34.8535L36.0352 3.01446ZM25.2775 1.2975C24.2166 1.97385 23.1707 2.77167 22.2113 3.74281C22.1233 3.70969 22.0367 3.67341 21.9502 3.63432L21.8308 3.57731L21.7279 3.52571L21.616 3.46561C21.3727 3.33195 21.1385 3.17859 20.9102 3.01446V2.97973C21.989 2.16465 23.1886 1.55763 24.4553 1.14135L24.4807 1.11493C24.5195 1.07308 24.5538 1.03736 24.6105 1.03736V1.07199C24.6687 1.08705 24.7224 1.06623 24.7731 1.04629C24.8388 1.02025 24.9015 0.995723 24.9701 1.05462C25.0089 1.08748 25.0507 1.11786 25.0925 1.14767L25.1029 1.15575L25.1145 1.16425C25.1733 1.20728 25.2313 1.24977 25.2775 1.2975ZM34.2358 3.96834L34.2701 3.91626C33.3629 2.97973 32.2842 2.16467 31.1696 1.59229C31.0503 1.65673 30.9249 1.71369 30.7981 1.77008L30.7965 1.7708C30.6523 1.83564 30.5097 1.89979 30.3818 1.97385C31.0338 2.85837 31.6157 3.77756 32.1469 4.69671C32.8825 4.54063 33.5688 4.26312 34.2358 3.96834ZM26.5621 1.93915L26.5114 2.07795C25.8982 2.86215 25.4058 3.70801 24.9209 4.54285L24.9164 4.55319L24.8328 4.69671L24.7642 4.71406C24.0614 4.52328 23.3766 4.29785 22.726 4.00299L22.7604 3.89901C23.7019 2.97975 24.6956 2.21665 25.7922 1.62699L26.0489 1.72743C26.2202 1.79279 26.3923 1.85844 26.5621 1.93915ZM28.2467 4.3371C28.2541 3.63167 28.2616 2.91458 28.2243 2.26863L27.1276 2.11255C26.4264 2.96238 25.843 3.88161 25.3461 4.83551C25.7087 4.95751 26.1429 5.01591 26.5368 5.06879L26.8546 5.11302C26.9788 5.12203 27.1001 5.13456 27.2199 5.14694L27.2231 5.14727C27.5618 5.18242 27.8871 5.21618 28.2407 5.165V5.01985C28.2407 4.79665 28.2437 4.5694 28.2466 4.3409L28.2467 4.3371ZM29.8342 2.12995C30.5027 2.99711 31.1532 3.88161 31.5978 4.83551C31.2203 4.92755 30.8399 5.00226 30.4564 5.05845C30.0058 5.12447 29.5507 5.16491 29.0927 5.17784L28.7719 5.18238C28.7378 4.2806 28.7552 3.27878 28.7715 2.34053L28.7719 2.32106V2.28601L29.8342 2.12995Z" fill="#13080D"/>
<path d="M22.2113 8.39088C23.9242 7.12474 26.5621 7.21147 28.4466 8.02664L29.2344 8.46021C29.2866 8.33496 29.2822 8.17831 29.2777 8.02806L29.2776 8.02636C29.2762 7.96734 29.2747 7.90934 29.2762 7.85463C29.2777 7.81773 29.2807 7.78233 29.2866 7.74914C30.0565 7.71448 30.9995 7.71451 31.7694 7.73179L31.7903 8.97939C31.8008 9.48564 31.8097 9.98049 31.8127 10.4828C31.8157 10.9258 31.8142 11.3746 31.8037 11.8422C31.183 11.8684 30.531 11.8649 29.9252 11.8616L29.3553 11.8595C28.6525 10.7322 27.4186 10.316 26.2204 10.1426C26.1264 10.1397 26.0265 10.1325 25.925 10.1251C25.4162 10.0882 24.8478 10.0468 24.5762 10.5241C24.5419 10.7149 24.6269 10.8709 24.7642 10.9924L25.0731 11.1484L29.218 12.3798C30.6056 12.744 31.9753 14.0795 32.1633 15.5537C32.3528 17.0624 31.6665 18.4673 30.3818 19.1958C28.6182 20.1322 26.3234 19.9588 24.5419 19.1958L24.2509 19.0362L24.2482 19.0347C24.1357 18.9722 24.0232 18.9097 23.9107 18.8503C23.8302 18.8074 23.7496 18.7661 23.6675 18.7275L23.6332 19.5599L21.0639 19.5772C21.0132 18.1898 21.0296 16.5769 21.0639 15.1721L23.3766 15.1547C23.4401 15.2349 23.4921 15.3227 23.5444 15.4109C23.5486 15.418 23.5529 15.4252 23.5571 15.4323C23.6123 15.5277 23.6675 15.623 23.7362 15.7097C24.9015 16.9584 26.6487 17.3053 28.2646 16.8512L28.2708 16.8475C28.329 16.8134 28.3947 16.7749 28.4451 16.726C28.4958 16.677 28.5317 16.6177 28.5317 16.5421C28.566 16.3514 28.3616 16.1953 28.2064 16.126C28.002 16.0545 27.7961 15.9854 27.5887 15.9181C27.0709 15.7495 26.5502 15.592 26.0295 15.4347L26.0116 15.4294L25.1536 15.1676C24.6135 15.0005 24.0764 14.8268 23.5482 14.6344C22.4351 14.2008 21.2698 13.2816 21.0475 12.033C20.7565 10.7149 21.0982 9.22331 22.2113 8.39088Z" fill="#13080D"/>
<path fill-rule="evenodd" clip-rule="evenodd" d="M35.0579 8.33878C37.3542 7.02076 40.7457 7.12477 42.9718 8.58166C43.7432 9.11926 44.3758 9.86505 44.6847 10.6975C45.4561 12.848 45.3696 15.7097 44.1028 17.6174C43.5537 18.3459 42.8181 18.8835 42.0467 19.2131L41.9736 19.2456C41.717 19.3865 41.3425 19.4841 41.2246 19.5079C38.7403 20.2189 35.9487 19.8374 34.0314 18.103C32.3871 16.4554 32.2663 13.8366 32.7288 11.634C32.9855 10.2986 33.8076 8.9979 35.0579 8.33878ZM40.7203 12.1755C40.6904 11.7914 40.6591 11.3968 40.4547 11.0791C40.0429 10.5241 39.3924 10.42 38.7239 10.42C38.0913 10.4721 37.3885 10.6455 37.1319 11.3219C36.829 12.336 36.8812 13.4996 36.9319 14.6186L36.9424 14.8772L36.9454 14.8923C37.0125 15.4948 37.0841 16.1291 37.6108 16.5076C38.245 16.8717 39.17 16.9585 39.8549 16.6463C40.2831 16.4902 40.5577 16.0566 40.6427 15.6404C40.7651 14.9192 40.7561 14.109 40.7472 13.3439V13.3268L40.7442 13.0189V12.6794L40.7457 12.4666C40.7352 12.3712 40.7278 12.2737 40.7203 12.1755Z" fill="#13080D"/>
<path d="M12.8083 7.55836L13.8707 7.54105L20.3283 7.55836C20.379 8.46021 20.3626 9.51819 20.3447 10.5067L18.6497 10.5241L18.6154 10.5762L18.5975 16.6636C18.7079 16.6774 18.8213 16.6865 18.9362 16.6923C19.0421 16.6977 19.1511 16.7004 19.26 16.7016L19.6151 16.7024C19.8628 16.7018 20.1105 16.7012 20.3447 16.7156V19.5772H12.7919C12.777 19.1817 12.7695 18.7892 12.7665 18.396C12.765 18.1624 12.7665 17.9285 12.7695 17.6936C12.7725 17.3702 12.78 17.0449 12.7919 16.7156L14.4869 16.681L14.5048 16.4381V10.5414C14.1258 10.5067 13.7558 10.5029 13.3768 10.499L13.3723 10.4989C13.1873 10.497 12.9993 10.4951 12.8083 10.4894C12.7919 9.55282 12.7919 8.47758 12.8083 7.55836Z" fill="#13080D"/>
<path fill-rule="evenodd" clip-rule="evenodd" d="M24.5805 20.855C24.6308 20.8578 24.6811 20.8607 24.7299 20.8607L25.1924 21.7798C25.5848 21.6978 25.9817 21.6292 26.3846 21.573C27.0023 21.4868 27.6319 21.4298 28.275 21.3984C28.3371 21.2942 28.3303 21.1964 28.323 21.0898L28.3228 21.0869C28.3183 21.0168 28.3138 20.9428 28.3272 20.8607H28.7719C28.8091 20.9345 28.8062 21.033 28.8032 21.1325L28.8032 21.1663C28.8017 21.2001 28.8002 21.2338 28.8032 21.2663L28.8092 21.3207L28.8241 21.381C29.8506 21.4502 30.9652 21.5718 31.9753 21.7971L32.4379 20.8607H32.9004C32.8605 21.0647 32.7664 21.2627 32.6719 21.4618L32.6691 21.4676C32.6035 21.605 32.5378 21.743 32.4886 21.8838L32.5751 21.9533C33.345 22.1614 34.0314 22.439 34.7849 22.751C35.329 22.2001 35.7612 21.5526 36.1751 20.9324L36.1829 20.9207L36.2232 20.8607H36.7544C36.3426 21.6064 35.8114 22.2828 35.2638 22.9593C35.3802 23.0379 35.5011 23.1122 35.6249 23.1848L35.9502 23.3733C36.1576 23.4911 36.365 23.6097 36.5664 23.7398C36.6007 23.7916 36.7022 23.809 36.7365 23.757C37.7302 22.9593 38.6389 21.936 39.358 20.8779C39.5296 20.8607 39.7519 20.8607 39.9056 20.8779C36.9946 25.4219 31.9753 27.7287 26.7173 27.0175C25.1924 26.8094 23.7541 26.3238 22.4008 25.6475C22.4351 25.6301 22.4008 25.5953 22.3829 25.5953C22.3665 25.5953 22.3665 25.6126 22.3665 25.6126C20.3626 24.5895 18.4438 22.8552 17.2099 20.8779L17.2666 20.8732C17.3457 20.8663 17.4158 20.8602 17.4859 20.8585C17.5277 20.8575 17.5695 20.858 17.6128 20.8608C17.659 20.8637 17.7068 20.8691 17.759 20.8779C18.4781 21.9705 19.4375 23.0111 20.4641 23.809C20.8177 23.643 21.1624 23.4298 21.504 23.2182L21.8696 22.9939L21.7667 22.8648C21.2536 22.216 20.7474 21.576 20.3626 20.8607C20.4187 20.8711 20.488 20.8628 20.5618 20.854L20.564 20.8538C20.7341 20.8333 20.9192 20.8111 20.9788 21.0168C21.3548 21.6064 21.8174 22.1961 22.2978 22.7337L22.3665 22.7684C23.102 22.4563 23.857 22.1789 24.6269 21.9533L24.6792 21.9013L24.2509 20.8779C24.3359 20.841 24.4552 20.8478 24.579 20.8549L24.5805 20.855ZM28.3272 24.8496C28.1497 24.8925 27.9632 24.9142 27.7782 24.9356C27.5905 24.9575 27.4034 24.9793 27.2306 25.023C26.5278 24.1733 25.9459 23.254 25.4491 22.3001L25.5356 22.2307C26.4264 22.0572 27.3499 21.9187 28.3093 21.9187L28.3272 24.8496ZM31.7187 22.3174L31.7008 22.2656C30.7936 22.04 29.8178 21.936 28.8405 21.9187C28.7898 22.9419 28.8062 23.8437 28.8405 24.8671L29.1315 24.9016C29.2493 24.9086 29.3642 24.9324 29.4776 24.9562C29.6462 24.9914 29.8148 25.0264 29.9879 25.0056C30.6399 24.1559 31.2383 23.254 31.7187 22.3174ZM24.9358 22.4216C25.2208 22.9675 25.5431 23.4964 25.8832 24.018L26.0563 24.2811L26.307 24.6544L26.6651 25.179C26.6039 25.2147 26.5383 25.2468 26.4711 25.2773L26.2801 25.3614C26.1473 25.4177 26.0145 25.4741 25.8952 25.5433C24.7642 24.971 23.6854 24.1733 22.7768 23.2195V23.1673C23.4452 22.8377 24.148 22.595 24.8672 22.4041L24.9358 22.4216ZM32.4543 24.8149C33.1063 24.3468 33.8076 23.7916 34.3567 23.15C33.7046 22.8204 33.0034 22.5776 32.2663 22.4041L32.2155 22.439C31.7351 23.358 31.1875 24.2252 30.5713 25.0751L30.5191 25.1965L31.2562 25.5259C31.4665 25.4193 31.6724 25.2991 31.8769 25.1745L32.4543 24.8149ZM36.1889 24.1385C35.2295 24.9189 34.1164 25.4392 32.9855 25.8728L32.1812 26.1329C32.0448 26.0643 31.926 25.9614 31.8059 25.8574L31.8037 25.8555L31.8381 25.8035C32.9347 25.1445 33.9284 24.3467 34.8699 23.3929C35.3325 23.5836 35.7771 23.8437 36.1889 24.1385ZM24.9865 26.1329C25.1074 26.0637 25.2432 25.9595 25.3297 25.8555C24.233 25.1445 23.2229 24.3986 22.2456 23.4102C22.0382 23.4989 21.8383 23.6064 21.6428 23.7223C21.4894 23.8138 21.3374 23.9105 21.1855 24.0071L21.1803 24.0104L21.1489 24.0303L20.9788 24.1385V24.1906C22.2113 25.0923 23.5482 25.7515 24.9865 26.1329ZM31.4621 26.2545C31.4949 26.3235 31.4471 26.3314 31.3994 26.3391L31.3971 26.3395C31.3754 26.3433 31.3527 26.3472 31.3412 26.3585C29.5254 26.7574 27.5051 26.7748 25.6893 26.3238C25.6656 26.2652 25.7138 26.2382 25.7627 26.2109L25.7639 26.2102L25.7937 26.1927C25.8057 26.1851 25.8176 26.177 25.8265 26.1678C27.4186 25.1098 29.9029 25.1098 31.4621 26.2545Z" fill="#13080D"/>
<path d="M1.94283 48.1149V47.9143C1.98248 46.33 3.13231 45.6682 5.13461 44.6655C7.94972 43.2617 9.55553 42.4595 9.55553 39.8926C9.55553 36.6839 7.03779 35.7814 4.38127 35.7814C2.95389 35.7814 1.54633 36.0421 0.37667 36.5435L1.09036 38.1077C2.10142 37.7668 3.23144 37.6064 4.38127 37.6064C6.50252 37.6064 7.59288 38.1077 7.59288 39.8926C7.59288 41.2964 7.01796 41.6574 4.26232 43.0411C2.0816 44.1441 0.0396495 45.2471 0 47.8742V49.6992H9.55553V48.1149H1.94283Z" fill="#13080D"/>
<path d="M20.8336 36.0622H11.4169V37.6665H18.6133L11.9125 49.6992H14.1329L20.8336 37.3256V36.0622Z" fill="#13080D"/>
<path fill-rule="evenodd" clip-rule="evenodd" d="M22.6722 42.9007C22.6722 38.93 25.071 35.7614 28.6791 35.8015C32.3467 35.8015 34.7058 38.9701 34.7058 42.9007C34.7058 46.8114 32.3467 50 28.6791 50C25.071 50 22.6722 46.8114 22.6722 42.9007ZM32.7432 42.9007C32.7432 39.7923 31.0581 37.6064 28.6791 37.6064C26.3398 37.5863 24.6348 39.7522 24.6348 42.9007C24.6348 45.9891 26.3398 48.1751 28.6791 48.1751C31.0581 48.1751 32.7432 45.9891 32.7432 42.9007Z" fill="#13080D"/>
<path fill-rule="evenodd" clip-rule="evenodd" d="M43.4375 35.8015C39.8294 35.7614 37.4306 38.93 37.4306 42.9007C37.4306 46.8114 39.8294 50 43.4375 50C47.1051 50 49.4642 46.8114 49.4642 42.9007C49.4642 38.9701 47.1051 35.8015 43.4375 35.8015ZM43.4375 37.6064C45.8165 37.6064 47.5016 39.7923 47.5016 42.9007C47.5016 45.9891 45.8165 48.1751 43.4375 48.1751C41.0982 48.1751 39.3933 45.9891 39.3933 42.9007C39.3933 39.7522 41.0982 37.5863 43.4375 37.6064Z" fill="#13080D"/>
<path d="M57.0659 36.0622V48.1149H60V49.6992H51.9115V48.1149H55.1826V38.3083L52.4269 39.6319L51.6141 38.188L55.9954 36.0622H57.0659Z" fill="#13080D"/>
</svg>
