<?xml version="1.0" encoding="utf-8"?><svg width="46" height="50" viewBox="0 0 46 50" fill="none" xmlns="http://www.w3.org/2000/svg">
<path d="M24.0571 0.776289H23.5308V0.25592C23.5308 0.110898 23.4186 0 23.2719 0H22.7542C22.6075 0 22.4953 0.110898 22.4953 0.25592V0.776289H21.969C21.8223 0.776289 21.7101 0.887188 21.7101 1.03221V1.54405C21.7101 1.68054 21.8223 1.79997 21.969 1.79997H22.4953V2.32034C22.4953 2.45683 22.6075 2.57626 22.7542 2.57626H23.2719C23.4186 2.57626 23.5308 2.45683 23.5308 2.32034V1.79997H24.0571C24.2038 1.79997 24.316 1.68054 24.316 1.54405V1.03221C24.316 0.895718 24.2038 0.776289 24.0571 0.776289Z" fill="#13080D"/>
<path d="M24.6525 5.48521C24.6525 6.70074 23.9069 7.68612 22.9872 7.68612C22.0674 7.68612 21.3218 6.70074 21.3218 5.48521C21.3218 4.26968 22.0674 3.2843 22.9872 3.2843C23.9069 3.2843 24.6525 4.26968 24.6525 5.48521Z" fill="#13080D"/>
<path d="M17.0418 8.36004H29.0013V9.57992H17.0418V8.36004Z" fill="#13080D"/>
<path d="M10.5875 17.539C10.5875 18.3921 10.6306 19.0575 10.6479 19.3134C10.6597 19.453 10.6803 19.5926 10.701 19.7322C10.7258 19.8997 10.7507 20.0672 10.7601 20.2347C10.7342 20.5589 10.32 20.5418 10.251 20.2518C10.0701 19.5053 9.77448 18.8085 9.47526 18.1031L9.38809 17.8973C9.07855 17.1863 8.58165 16.1237 8.09385 15.0807C7.65701 14.1466 7.22743 13.228 6.94615 12.5912C6.58375 11.7723 5.73813 11.2605 4.80622 11.269H0V27.1445H4.47833V20.866C4.47833 20.0129 4.43518 19.3475 4.41793 19.0916C4.40631 18.9538 4.38602 18.8161 4.36561 18.6775C4.34053 18.5073 4.31527 18.3358 4.30575 18.1618C4.32301 17.8376 4.74582 17.8547 4.81485 18.1447C4.9563 18.7284 5.50545 19.9232 5.92797 20.8425C6.09818 21.2128 6.24799 21.5388 6.34214 21.7617C6.9289 23.1095 7.52428 24.4574 8.11967 25.8052C8.48207 26.6242 9.32769 27.136 10.2596 27.1275H15.0658V11.2605H10.5789V17.539H10.5875Z" fill="#13080D"/>
<path d="M41.5648 19.3134C41.5476 19.0575 41.5044 18.3921 41.5044 17.539H41.513V11.2605H46V27.1275H41.1938C40.2619 27.136 39.4163 26.6242 39.0538 25.8052C38.4498 24.4574 37.8545 23.1095 37.2677 21.7617C37.1736 21.5389 37.0241 21.2136 36.854 20.8436C36.4315 19.9243 35.8819 18.7284 35.7404 18.1447C35.6714 17.8547 35.2572 17.8376 35.2313 18.1618C35.2408 18.3358 35.2661 18.5072 35.2912 18.6775C35.3116 18.8161 35.3319 18.9538 35.3435 19.0916C35.3607 19.3475 35.4039 20.0129 35.4039 20.866V27.1445H30.9169V11.269H35.7231C36.655 11.2605 37.5007 11.7723 37.8631 12.5912C38.1443 13.228 38.5739 14.1465 39.0107 15.0806C39.4985 16.1237 39.9955 17.1862 40.305 17.8973L40.3922 18.1031C40.6914 18.8085 40.987 19.5053 41.1679 20.2518C41.2369 20.5418 41.6511 20.5589 41.677 20.2347C41.6676 20.0672 41.6428 19.8997 41.6179 19.7322C41.5973 19.5926 41.5766 19.453 41.5648 19.3134Z" fill="#13080D"/>
<path d="M19.9152 27.136C18.3361 27.136 17.0504 25.9332 17.0504 24.4318L17.0418 11.2605H29.0013V15.2357H21.5115V17.2234H26.3868V21.1901H21.5115V23.1693H29.0013V27.136H19.9152Z" fill="#13080D"/>
<path d="M21.1924 3.58287C20.8387 4.07765 20.6143 4.75157 20.6143 5.48521C20.6143 6.38093 20.9422 7.17428 21.4427 7.67759H19.2682C18.5952 7.14869 18.1551 6.19325 18.1551 5.32313C18.1551 4.035 19.0266 3.41226 20.3037 3.41226C20.6143 3.41226 20.9163 3.47198 21.1924 3.58287Z" fill="#13080D"/>
<path d="M17.8529 3.82173C17.5854 4.28239 17.4215 4.86247 17.4215 5.48521C17.4215 6.38093 17.827 7.17428 18.3447 7.67759H16.9124C16.2048 7.02073 15.7906 6.05676 15.7906 5.52786C15.7906 4.70039 16.5068 3.85585 17.8529 3.82173Z" fill="#13080D"/>
<path d="M24.7906 3.58287C25.1444 4.07765 25.3688 4.75157 25.3688 5.48521C25.3688 6.38093 25.0409 7.17428 24.5404 7.67759H26.7149C27.3879 7.14869 27.828 6.19325 27.828 5.32313C27.828 4.035 26.9565 3.41226 25.6794 3.41226C25.3688 3.41226 25.0668 3.47198 24.7906 3.58287Z" fill="#13080D"/>
<path d="M28.1298 3.82173C28.3973 4.28239 28.5613 4.86247 28.5613 5.48521C28.5613 6.38093 28.1557 7.17428 27.638 7.67759H29.0704C29.7779 7.02073 30.1921 6.05676 30.1921 5.52786C30.1921 4.70039 29.4759 3.85585 28.1298 3.82173Z" fill="#13080D"/>
<path fill-rule="evenodd" clip-rule="evenodd" d="M33.8824 42.8909C33.8824 38.9146 36.2979 35.7416 39.9312 35.7818C43.6244 35.7818 46 38.9548 46 42.8909C46 46.8069 43.6244 50 39.9312 50C36.2979 50 33.8824 46.8069 33.8824 42.8909ZM44.0237 42.8909C44.0237 39.7782 42.3268 37.5892 39.9312 37.5892C37.5756 37.5691 35.8588 39.738 35.8588 42.8909C35.8588 45.9836 37.5756 48.1725 39.9312 48.1725C42.3268 48.1725 44.0237 45.9836 44.0237 42.8909Z" fill="#13080D"/>
<path d="M0 36.0429H9.48246V37.3081L2.73494 49.6988H0.499076L7.24659 37.6495H0V36.0429Z" fill="#13080D"/>
<path d="M20.0378 36.0429V37.6495H13.7494V41.5655C14.5279 41.3446 15.3065 41.2642 16.2647 41.2642C19.1793 41.2642 21.2355 42.8909 21.2156 45.3811C21.2156 48.1725 18.9198 49.9799 15.7257 49.9799C14.1087 49.9799 12.4917 49.6787 11.1542 49.0561L11.8529 47.5299C13.0507 47.9516 14.3882 48.1725 15.7257 48.1725C17.9017 48.1725 19.2193 47.0881 19.2193 45.4815C19.2193 43.9151 18.1612 42.8307 16.2647 42.8307C15.1268 42.8307 13.969 43.0516 12.9309 43.4733L11.8529 42.3688V36.0429H20.0378Z" fill="#13080D"/>
<path d="M28.7667 48.1123V36.0429H27.6887L23.2769 38.1716L24.0954 39.6175L26.8703 38.2921V48.1123H23.5763V49.6988H31.7213V48.1123H28.7667Z" fill="#13080D"/>
</svg>
