<svg width="108" height="77" viewBox="0 0 108 77" fill="none" xmlns="http://www.w3.org/2000/svg">
<path d="M93.9566 0C73.6385 13.5233 58.1012 38.638 61.3879 57.957C63.4795 69.8244 71.8458 77 82.9012 77C94.5542 77 103.518 68.4444 103.518 57.957C103.518 48.0215 96.0482 40.5699 86.7855 39.19C90.6699 26.2186 97.841 16.5591 108 8.27956L93.9566 0ZM33.0024 0C12.9831 13.5233 -2.85307 38.638 0.433676 57.957C2.52524 69.8244 11.1903 77 21.9469 77C33.6 77 42.8626 68.4444 42.8626 57.957C42.8626 48.0215 35.0939 40.5699 26.1301 39.19C29.7156 26.2186 36.8867 16.5591 47.0458 8.27956L33.0024 0Z" fill="white"/>
</svg>
